HIERARCHY
ROOT Hips
{
	OFFSET -21.947001 39.810204 44.525997
	CHANNELS 6 Xposition Yposition Zposition Zrotation Xrotation Yrotation
	JOINT Chest
	{
		OFFSET -0.201599 0.334099 6.453201
		CHANNELS 6 Xposition Yposition Zposition Zrotation Xrotation Yrotation
		JOINT Chest2
		{
			OFFSET 0.000000 0.000000 3.568001
			CHANNELS 6 Xposition Yposition Zposition Zrotation Xrotation Yrotation
			JOINT Neck
			{
				OFFSET 0.000000 0.000000 8.296402
				CHANNELS 6 Xposition Yposition Zposition Zrotation Xrotation Yrotation
				JOINT Head
				{
					OFFSET 0.000000 0.000000 2.173901
					CHANNELS 6 Xposition Yposition Zposition Zrotation Xrotation Yrotation
					End Site
					{
						OFFSET 0.000000 0.000000 7.891998
					}
				}
			}
			JOINT LeftCollar
			{
				OFFSET 1.927601 0.221401 6.049000
				CHANNELS 6 Xposition Yposition Zposition Zrotation Xrotation Yrotation
				JOINT LeftShoulder
				{
					OFFSET 4.959700 0.000000 0.000000
					CHANNELS 6 Xposition Yposition Zposition Zrotation Xrotation Yrotation
					JOINT LeftElbow
					{
						OFFSET 0.000000 0.000000 -8.654202
						CHANNELS 6 Xposition Yposition Zposition Zrotation Xrotation Yrotation
						JOINT LeftWrist
						{
							OFFSET 0.000000 0.000000 -13.864101
							CHANNELS 6 Xposition Yposition Zposition Zrotation Xrotation Yrotation
							End Site
							{
								OFFSET 0.000000 0.000000 -2.173901
							}
						}
					}
				}
			}
			JOINT RightCollar
			{
				OFFSET -3.155701 -0.764999 6.687801
				CHANNELS 6 Xposition Yposition Zposition Zrotation Xrotation Yrotation
				JOINT RightShoulder
				{
					OFFSET -3.592899 0.000000 0.000000
					CHANNELS 6 Xposition Yposition Zposition Zrotation Xrotation Yrotation
					JOINT RightElbow
					{
						OFFSET 0.000000 0.000000 -10.352398
						CHANNELS 6 Xposition Yposition Zposition Zrotation Xrotation Yrotation
						JOINT RightWrist
						{
							OFFSET 0.000000 0.000000 -12.750301
							CHANNELS 6 Xposition Yposition Zposition Zrotation Xrotation Yrotation
							End Site
							{
								OFFSET 0.000000 0.000000 -2.173901
							}
						}
					}
				}
			}
		}
	}
	JOINT LeftHip
	{
		OFFSET 2.460600 -0.518101 -2.735500
		CHANNELS 6 Xposition Yposition Zposition Zrotation Xrotation Yrotation
		JOINT LeftKnee
		{
			OFFSET 0.000000 -0.000004 -17.005899
			CHANNELS 6 Xposition Yposition Zposition Zrotation Xrotation Yrotation
			JOINT LeftAnkle
			{
				OFFSET 0.000000 0.000000 -19.194401
				CHANNELS 6 Xposition Yposition Zposition Zrotation Xrotation Yrotation
				End Site
				{
					OFFSET 0.000000 -8.134600 0.000000
				}
			}
		}
	}
	JOINT RightHip
	{
		OFFSET -3.115499 -0.679600 -2.320301
		CHANNELS 6 Xposition Yposition Zposition Zrotation Xrotation Yrotation
		JOINT RightKnee
		{
			OFFSET 0.000000 -0.000004 -17.680401
			CHANNELS 6 Xposition Yposition Zposition Zrotation Xrotation Yrotation
			JOINT RightAnkle
			{
				OFFSET 0.000000 0.000000 -16.993797
				CHANNELS 6 Xposition Yposition Zposition Zrotation Xrotation Yrotation
				End Site
				{
					OFFSET 0.000000 -8.842300 0.000000
				}
			}
		}
	}
}
MOTION
Frames: 6
Frame Time: 0.041667
-26.516102 13.614697 44.884193 2455.296076 -22.726227 -5.315012 -0.201604 0.334096 6.453203 16.024256 15.476328 10.709028 0.000003 0.000000 3.567995 -4.041691 4.552765 0.287670 -0.000003 0.000003 8.296402 229.626206 -177.329606 164.248414 0.000002 0.000001 2.173902 3.097020 3.041207 4.042399 1.927599 0.221409 6.048998 -19.193405 1.199167 -6.243286 4.959700 0.000005 0.000005 127.935864 196.951237 135.924890 -0.000001 0.000004 -8.654202 -31.564039 -16.642169 7.242902 -0.000010 0.000005 -13.864103 4071.097864 -158.720756 159.136878 -3.155705 -0.765001 6.687795 44.367854 3.822292 1.966043 -3.592901 -0.000002 0.000000 -131.470213 187.138044 219.963278 -0.000003 -0.000001 -10.352402 -299.581441 -16.715384 -349.895319 0.000005 -0.000007 -12.750302 214.102675 10.313132 -23.153549 2.460599 -0.518103 -2.735500 -450.259403 47.042972 43.884607 0.000001 0.000002 -17.005894 164.858077 195.239100 -73.832446 -0.000007 0.000006 -19.194397 632.541415 164.505762 250.950767 -3.115502 -0.679598 -2.320302 -365.946154 20.657998 -0.030895 -0.000006 0.000001 -17.680405 -477.033143 153.874217 -197.394516 0.000003 0.000004 -16.993793 1044.051898 20.978574 -359.627410
-26.515299 13.618605 44.872593 2455.346128 -22.770194 -5.275067 -0.201597 0.334096 6.453200 16.002578 15.538018 10.676059 0.000001 0.000001 3.567993 -4.023016 4.555588 0.287280 -0.000001 0.000003 8.296404 229.576318 -177.314224 164.248154 -0.000003 -0.000001 2.173899 3.095097 3.048531 4.048174 1.927598 0.221403 6.049002 -19.173198 1.140342 -6.264244 4.959699 -0.000001 0.000003 127.886427 196.898685 135.941610 -0.000006 0.000000 -8.654203 -31.578420 -16.667576 7.248727 -0.000003 0.000002 -13.864099 4071.194470 -158.721712 159.164595 -3.155708 -0.764997 6.687798 44.360419 3.838977 2.084983 -3.592899 -0.000005 -0.000002 -131.509391 187.352635 219.986132 -0.000005 -0.000004 -10.352394 -299.661682 -16.762599 -350.078723 0.000004 -0.000004 -12.750299 214.396974 10.290690 -23.170998 2.460603 -0.518098 -2.735502 -450.105969 47.002322 43.784450 0.000000 -0.000004 -17.005894 164.753425 195.015575 -73.881815 -0.000013 0.000002 -19.194401 632.438088 164.505885 250.933664 -3.115500 -0.679600 -2.320294 -366.017461 20.671600 -0.036904 -0.000001 -0.000005 -17.680393 -476.987244 153.870843 -197.454198 0.000004 0.000001 -16.993797 1044.035177 20.975405 -359.607848
-26.516191 13.623398 44.862392 2455.395524 -22.810701 -5.226243 -0.201597 0.334097 6.453213 16.021088 15.588056 10.625264 0.000001 0.000004 3.567994 -4.022420 4.575317 0.286119 -0.000003 0.000011 8.296393 229.513754 -177.304689 164.254616 0.000002 -0.000001 2.173906 3.090300 3.022414 4.052413 1.927599 0.221407 6.048999 -19.148794 1.085370 -6.313794 4.959701 -0.000003 0.000003 127.815147 196.867690 135.971267 -0.000001 0.000002 -8.654202 -31.694537 -16.695455 7.223985 0.000003 -0.000002 -13.864091 4071.364514 -158.740194 159.121674 -3.155712 -0.765001 6.687796 44.349774 3.846608 2.256594 -3.592905 -0.000004 0.000003 -131.493627 187.561202 219.947596 0.000005 0.000001 -10.352387 -299.842627 -16.779523 -350.277454 -0.000004 -0.000002 -12.750303 214.682449 10.263259 -23.171436 2.460606 -0.518100 -2.735493 -449.971906 46.953989 43.695380 -0.000003 0.000000 -17.005894 164.641273 194.853208 -73.946258 -0.000008 -0.000001 -19.194403 632.366781 164.537946 251.068246 -3.115496 -0.679603 -2.320290 -366.098249 20.686983 -0.043205 -0.000004 -0.000005 -17.680401 -476.931182 153.882782 -197.511927 0.000002 0.000005 -16.993795 1044.022938 20.976510 -359.589980
-26.520597 13.631908 44.851791 2455.444483 -22.847652 -5.138864 -0.201601 0.334097 6.453204 16.085744 15.621771 10.530052 0.000004 0.000006 3.568004 -4.040061 4.604058 0.283861 0.000004 0.000003 8.296397 229.439523 -177.299417 164.264014 -0.000003 -0.000001 2.173898 3.083510 2.967612 4.054587 1.927603 0.221398 6.048993 -19.130069 1.054606 -6.380236 4.959699 0.000002 0.000002 127.736080 196.865463 135.991334 0.000005 0.000001 -8.654196 -31.819099 -16.723361 7.197985 -0.000006 -0.000002 -13.864098 4071.538056 -158.754060 159.076663 -3.155703 -0.765005 6.687798 44.345751 3.854450 2.436744 -3.592899 -0.000008 0.000001 -131.449531 187.669447 219.842370 0.000001 -0.000004 -10.352401 -300.025785 -16.753377 -350.325211 -0.000001 -0.000008 -12.750303 214.859173 10.251660 -23.173859 2.460601 -0.518099 -2.735498 -450.036766 46.873925 43.739551 -0.000004 0.000001 -17.005894 164.692499 194.884340 -74.040856 -0.000003 -0.000001 -19.194399 632.387107 164.577930 251.276376 -3.115497 -0.679596 -2.320298 -366.156988 20.708377 -0.092176 -0.000006 -0.000003 -17.680401 -476.882114 153.892549 -197.566131 0.000004 0.000000 -16.993793 1044.049275 20.952811 -359.628530
-26.526398 13.643208 44.840393 2455.509178 -22.871956 -5.000850 -0.201594 0.334095 6.453207 16.180947 15.629351 10.390116 -0.000001 0.000004 3.567993 -4.071179 4.631581 0.280629 0.000003 0.000003 8.296395 229.350758 -177.297805 164.269547 -0.000000 -0.000000 2.173891 3.074276 2.894882 4.053679 1.927599 0.221408 6.048997 -19.133940 1.071138 -6.434830 4.959700 0.000001 0.000001 127.652943 196.872225 135.963002 -0.000003 0.000002 -8.654196 -31.972829 -16.759324 7.175283 -0.000003 -0.000001 -13.864094 4071.747879 -158.770179 159.016475 -3.155707 -0.764995 6.687799 44.361686 3.882248 2.567148 -3.592899 -0.000010 -0.000002 -131.339880 187.624736 219.728497 0.000002 -0.000003 -10.352399 -300.250526 -16.676834 -350.243303 -0.000002 0.000005 -12.750307 214.867192 10.250523 -23.171734 2.460605 -0.518101 -2.735498 -450.077911 46.857437 43.744869 0.000000 -0.000000 -17.005896 164.705804 194.890145 -74.148137 -0.000008 -0.000000 -19.194399 632.396451 164.560253 251.316291 -3.115494 -0.679604 -2.320292 -366.150186 20.735916 -0.210414 -0.000001 -0.000001 -17.680405 -476.896703 153.903765 -197.600965 0.000001 0.000000 -16.993792 1044.127412 20.901796 -359.740681
-26.534798 13.658007 44.827698 2455.586113 -22.890925 -4.815427 -0.201600 0.334105 6.453194 16.290865 15.617800 10.213933 -0.000000 0.000003 3.567999 -4.104096 4.647577 0.277447 0.000000 0.000003 8.296396 229.250955 -177.295865 164.259069 -0.000001 0.000000 2.173910 3.064684 2.814508 4.052990 1.927600 0.221406 6.048999 -19.171398 1.146425 -6.458476 4.959701 -0.000001 0.000001 127.575940 196.875900 135.864101 0.000001 0.000004 -8.654199 -32.008800 -16.793111 7.193565 -0.000004 0.000005 -13.864103 4071.749190 -158.845734 158.872099 -3.155705 -0.764999 6.687804 44.406816 3.946666 2.601928 -3.592901 -0.000006 0.000005 -131.316561 187.537214 219.646453 0.000006 -0.000002 -10.352392 -300.307162 -16.584650 -350.041676 0.000006 -0.000005 -12.750307 214.715138 10.246904 -23.174383 2.460604 -0.518091 -2.735504 -450.223285 46.867225 43.810141 0.000000 -0.000002 -17.005892 164.787671 195.039603 -74.261280 -0.000011 -0.000001 -19.194399 632.474643 164.569214 251.451775 -3.115498 -0.679593 -2.320303 -366.092976 20.770706 -0.394916 -0.000002 0.000001 -17.680397 -472.985136 154.804311 -198.650574 0.000004 0.000001 -16.993799 1040.830343 21.042821 -360.667374
